<svg id="Group_79" data-name="Group 79" xmlns="http://www.w3.org/2000/svg" xmlns:xlink="http://www.w3.org/1999/xlink" width="36.018" height="35.959" viewBox="0 0 36.018 35.959">
  <defs>
    <linearGradient id="linear-gradient" x1="0.5" x2="0.5" y2="1" gradientUnits="objectBoundingBox">
      <stop offset="0" stop-color="#191919"/>
      <stop offset="1" stop-color="#0c0016"/>
    </linearGradient>
  </defs>
  <path id="Path_5" data-name="Path 5" d="M56.018,80.048v2.808c-.04.277-.086.553-.118.831A18.065,18.065,0,0,1,41.946,99.022c-.837.181-1.687.265-2.53.4H36.6c-.475-.066-.951-.126-1.424-.2A18.073,18.073,0,0,1,20.385,85.278c-.171-.8-.254-1.615-.385-2.422V80.048c.019-.1.047-.2.057-.309a17.4,17.4,0,0,1,5.013-10.8A17.61,17.61,0,0,1,40.251,63.6,18.015,18.015,0,0,1,55.626,77.592C55.8,78.4,55.886,79.229,56.018,80.048Zm-9.152-4.553c.016-.984-.5-1.352-1.329-1.06l-.132.05L33.037,79.244c-1.651.636-3.3,1.267-4.95,1.917-.331.131-.722.29-.682.744.037.416.427.489.746.59,1.307.414,2.619.813,3.924,1.233a.813.813,0,0,0,.756-.092q3.474-2.2,6.96-4.38,1.518-.953,3.041-1.9c.177-.109.428-.243.577-.05.171.221-.114.339-.247.459q-3.932,3.56-7.874,7.11a.691.691,0,0,0-.279.468q-.141,2.012-.283,4.024c-.017.24.1.288.3.22a1.549,1.549,0,0,0,.576-.391c.625-.6,1.259-1.191,1.87-1.806a.4.4,0,0,1,.623-.041c1.01.762,2.033,1.506,3.053,2.255.378.277.746.571,1.142.818a.916.916,0,0,0,1.536-.587c.03-.1.053-.2.075-.307q1.295-6.075,2.585-12.151A17.884,17.884,0,0,0,46.866,75.495Z" transform="translate(-20 -63.466)" fill="url(#linear-gradient)"/>
</svg>
