<svg id="Group_80" data-name="Group 80" xmlns="http://www.w3.org/2000/svg" xmlns:xlink="http://www.w3.org/1999/xlink" width="35.907" height="35.907" viewBox="0 0 35.907 35.907">
  <defs>
    <linearGradient id="linear-gradient" x1="0.5" x2="0.5" y2="1" gradientUnits="objectBoundingBox">
      <stop offset="0" stop-color="#191919"/>
      <stop offset="1" stop-color="#0c0016"/>
    </linearGradient>
  </defs>
  <path id="Path_6" data-name="Path 6" d="M766.9,80.323v2.945c-.087.612-.135,1.232-.268,1.833a17.817,17.817,0,0,1-12.88,14.034,18.207,18.207,0,0,1-3.333.613h-2.946c-.588-.084-1.184-.134-1.764-.258-7.206-1.552-11.9-5.864-14.1-12.888a19.11,19.11,0,0,1-.612-3.264V80.253c.084-.565.155-1.132.254-1.695A18.04,18.04,0,0,1,744.2,64.432a25.239,25.239,0,0,1,3.2-.59h3.086c.714.114,1.438.165,2.141.336A17.835,17.835,0,0,1,766.3,77.057,18.581,18.581,0,0,1,766.9,80.323ZM748.971,71.5c-1.671.06-3.333-.005-4.986.154a5.426,5.426,0,0,0-4.4,2.63,6.755,6.755,0,0,0-.855,3.36c-.083,2.664-.094,5.328-.011,7.992a10.762,10.762,0,0,0,.154,1.673,5.283,5.283,0,0,0,4.011,4.435,7.116,7.116,0,0,0,1.729.255,90.1,90.1,0,0,0,9.284-.067,5.35,5.35,0,0,0,4.34-2.538,6.345,6.345,0,0,0,.9-3.274c.088-3.083.148-6.168-.054-9.251a5.489,5.489,0,0,0-5.228-5.226C752.229,71.527,750.592,71.566,748.971,71.5Z" transform="translate(-730.99 -63.842)" fill="url(#linear-gradient)"/>
  <path id="Path_7" data-name="Path 7" d="M828.1,169.519c-1.414.006-2.828.012-4.24-.07a4.541,4.541,0,0,1-2.92-1.012,4.229,4.229,0,0,1-1.269-3.127c-.127-2.393-.084-4.79-.054-7.185a12.786,12.786,0,0,1,.174-2.373,3.648,3.648,0,0,1,3.406-3.1c2.074-.2,4.156-.12,6.234-.133a33.344,33.344,0,0,1,3.535.129,3.693,3.693,0,0,1,3.506,3.519c.143,1.409.128,2.823.13,4.236,0,1.612.016,3.225-.067,4.836a6.785,6.785,0,0,1-.17,1.248,3.64,3.64,0,0,1-3.363,2.9C831.367,169.552,829.73,169.509,828.1,169.519Zm-.019-3.261a5.241,5.241,0,1,0-5.223-5.277A5.214,5.214,0,0,0,828.076,166.257Zm6.722-10.744a1.236,1.236,0,0,0-1.182-1.2,1.2,1.2,0,1,0,1.182,1.2Z" transform="translate(-810.142 -143.063)" fill="url(#linear-gradient)"/>
  <path id="Path_8" data-name="Path 8" d="M870.454,199.846a3.463,3.463,0,1,1-3.46,3.44A3.431,3.431,0,0,1,870.454,199.846Z" transform="translate(-852.503 -185.355)" fill="url(#linear-gradient)"/>
</svg>
