<svg xmlns="http://www.w3.org/2000/svg" xmlns:xlink="http://www.w3.org/1999/xlink" width="35.904" height="35.907" viewBox="0 0 35.904 35.907">
  <defs>
    <linearGradient id="linear-gradient" x1="0.5" x2="0.5" y2="1" gradientUnits="objectBoundingBox">
      <stop offset="0" stop-color="#191919"/>
      <stop offset="1" stop-color="#0c0016"/>
    </linearGradient>
  </defs>
  <g id="Group_82" data-name="Group 82" transform="translate(0 0)">
    <path id="Path_10" data-name="Path 10" d="M208.092,451.412h-2.524c-.312-.042-.623-.085-.935-.125a17.982,17.982,0,0,1-15.618-20.013,17.218,17.218,0,0,1,5.681-11.037,17.951,17.951,0,0,1,29.838,10.2c.1.586.166,1.178.247,1.767v2.524c-.051.4-.1.809-.154,1.213a17.97,17.97,0,0,1-14.7,15.215C209.318,451.256,208.7,451.326,208.092,451.412Zm8.983-24.565c-.113.055-.228.107-.34.165a9.1,9.1,0,0,1-1.834.688.649.649,0,0,1-.663-.169,4.119,4.119,0,0,0-4.253-.851,4.188,4.188,0,0,0-2.811,4.57c.05.406.027.441-.362.406a12.077,12.077,0,0,1-8.152-4.106c-.275-.3-.3-.307-.478.074a4.276,4.276,0,0,0,1.014,4.852c.13.115.307.2.371.393a2.481,2.481,0,0,1-1.441-.292c-.238-.1-.342-.092-.324.208a4.269,4.269,0,0,0,2.878,3.676c.124.04.277.036.382.213a3.987,3.987,0,0,1-1.337.13c-.36-.037-.407.022-.254.359a4.042,4.042,0,0,0,1.079,1.45,4.15,4.15,0,0,0,2.377,1.016c.079.006.181-.01.216.081s-.064.138-.123.187a2.65,2.65,0,0,1-.227.164,8.5,8.5,0,0,1-5.063,1.478,1.268,1.268,0,0,0-.529.035,2.283,2.283,0,0,0,.562.358,12.2,12.2,0,0,0,6.109,1.419,11.438,11.438,0,0,0,7.828-3.117,12.238,12.238,0,0,0,3.945-8.92,1.278,1.278,0,0,1,.532-1.122,6.391,6.391,0,0,0,1.511-1.67,7.383,7.383,0,0,1-2.207.511A4.149,4.149,0,0,0,217.075,426.847Z" transform="translate(-188.877 -415.505)" fill="url(#linear-gradient)"/>
  </g>
</svg>
