<svg xmlns="http://www.w3.org/2000/svg" width="50" height="27" viewBox="0 0 50 27">
  <g id="Group_98" data-name="Group 98" transform="translate(-415 -60)">
    <g id="Rectangle_48" data-name="Rectangle 48" transform="translate(415 60)" fill="#fff" stroke="#707070" stroke-width="1">
      <path d="M2,0H49.8a.2.2,0,0,1,.2.2V2a2,2,0,0,1-2,2H2A2,2,0,0,1,0,2V2A2,2,0,0,1,2,0Z" stroke="none"/>
      <path d="M2,.5H49.421A.079.079,0,0,1,49.5.579V2A1.5,1.5,0,0,1,48,3.5H2A1.5,1.5,0,0,1,.5,2V2A1.5,1.5,0,0,1,2,.5Z" fill="none"/>
    </g>
    <g id="Rectangle_49" data-name="Rectangle 49" transform="translate(415 72)" fill="#fff" stroke="#707070" stroke-width="1">
      <path d="M2,0H49.8a.2.2,0,0,1,.2.2V2a2,2,0,0,1-2,2H2A2,2,0,0,1,0,2V2A2,2,0,0,1,2,0Z" stroke="none"/>
      <path d="M2,.5H49.421A.079.079,0,0,1,49.5.579V2A1.5,1.5,0,0,1,48,3.5H2A1.5,1.5,0,0,1,.5,2V2A1.5,1.5,0,0,1,2,.5Z" fill="none"/>
    </g>
    <g id="Rectangle_50" data-name="Rectangle 50" transform="translate(415 83)" fill="#fff" stroke="#707070" stroke-width="1">
      <path d="M2,0H49.8a.2.2,0,0,1,.2.2V2a2,2,0,0,1-2,2H2A2,2,0,0,1,0,2V2A2,2,0,0,1,2,0Z" stroke="none"/>
      <path d="M2,.5H49.421A.079.079,0,0,1,49.5.579V2A1.5,1.5,0,0,1,48,3.5H2A1.5,1.5,0,0,1,.5,2V2A1.5,1.5,0,0,1,2,.5Z" fill="none"/>
    </g>
  </g>
</svg>
