<svg id="Group_81" data-name="Group 81" xmlns="http://www.w3.org/2000/svg" xmlns:xlink="http://www.w3.org/1999/xlink" width="35.889" height="35.882" viewBox="0 0 35.889 35.882">
  <defs>
    <linearGradient id="linear-gradient" x1="0.5" x2="0.5" y2="1" gradientUnits="objectBoundingBox">
      <stop offset="0" stop-color="#191919"/>
      <stop offset="1" stop-color="#0c0016"/>
    </linearGradient>
  </defs>
  <path id="Path_9" data-name="Path 9" d="M376.371,83.427v-2.8c.038-.277.08-.553.115-.83a17.28,17.28,0,0,1,4.737-10.058,17.533,17.533,0,0,1,15.316-5.521A16.894,16.894,0,0,1,406.6,68.945a17.533,17.533,0,0,1,5.382,16.249A17.931,17.931,0,0,1,398.5,99.5c-.923.214-1.859.33-2.793.462h-2.8c-.588-.084-1.179-.155-1.764-.255a18,18,0,0,1-14.307-13.485C376.62,85.3,376.5,84.362,376.371,83.427Zm19.2,5.15q0-2.7,0-5.392c0-.45.03-.476.477-.477.747,0,1.494,0,2.241,0,.472,0,.507-.039.553-.51q.148-1.515.3-3.029c.051-.492.045-.507-.468-.508-.887,0-1.774-.01-2.661,0-.332,0-.459-.125-.451-.455.015-.618-.008-1.238.009-1.856.028-.983.376-1.319,1.353-1.331.618-.008,1.237-.01,1.856,0,.289,0,.429-.091.426-.4-.01-1.039-.008-2.078,0-3.116,0-.279-.1-.4-.389-.4-1.249.01-2.5-.038-3.746.022a4.132,4.132,0,0,0-3.52,1.963,4.892,4.892,0,0,0-.725,2.422c-.036.909-.023,1.82-.016,2.731,0,.3-.12.422-.415.417-.5-.008-1,.006-1.505,0-.284,0-.395.116-.393.4.008,1.085.01,2.171,0,3.256,0,.311.125.408.42.4.49-.015.981.012,1.47-.009.33-.014.443.129.422.434-.009.128,0,.257,0,.385q0,5.2,0,10.4c0,.473.021.493.5.494q1.873,0,3.747,0c.49,0,.513-.024.514-.515Q395.57,91.238,395.569,88.577Z" transform="translate(-376.371 -64.079)" fill="url(#linear-gradient)"/>
</svg>
