<svg id="Group_83" data-name="Group 83" xmlns="http://www.w3.org/2000/svg" xmlns:xlink="http://www.w3.org/1999/xlink" width="35.858" height="35.907" viewBox="0 0 35.858 35.907">
  <defs>
    <linearGradient id="linear-gradient" x1="0.5" x2="0.5" y2="1" gradientUnits="objectBoundingBox">
      <stop offset="0" stop-color="#191919"/>
      <stop offset="1" stop-color="#0c0016"/>
    </linearGradient>
  </defs>
  <path id="Path_1" data-name="Path 1" d="M607.256,400.852h2.94c.426.06.852.118,1.278.18a18.015,18.015,0,0,1,14.567,13,26.6,26.6,0,0,1,.6,3.3v2.945c-.062.438-.121.877-.186,1.315a18.03,18.03,0,0,1-13.476,14.694c-.92.22-1.854.336-2.786.472h-2.94a2.377,2.377,0,0,0-.238-.048A17.326,17.326,0,0,1,596.4,431.86,17.583,17.583,0,0,1,591,416.033a17.977,17.977,0,0,1,12.963-14.576A26.4,26.4,0,0,1,607.256,400.852Zm1.453,28.393a13.8,13.8,0,0,0,2.954-.3,10.584,10.584,0,0,0,5.922-3.154,5.5,5.5,0,0,0,1.524-4.329c-.022-.237.091-.331.258-.439a2.575,2.575,0,1,0-2.875-4.262.392.392,0,0,1-.528.013,12.528,12.528,0,0,0-6.358-2.017c-.309-.019-.378-.129-.317-.415q.529-2.449,1.039-4.9c.06-.293.182-.385.48-.318q1.57.353,3.147.672a.529.529,0,0,1,.476.461,1.8,1.8,0,0,0,2.4,1.287,1.832,1.832,0,0,0-.034-3.445,1.771,1.771,0,0,0-2.034.617.543.543,0,0,1-.65.235c-1.194-.27-2.393-.516-3.591-.77-.671-.142-.788-.065-.932.612-.394,1.851-.792,3.7-1.175,5.554a.445.445,0,0,1-.495.411,12.594,12.594,0,0,0-6.431,2.012.4.4,0,0,1-.554-.031,2.386,2.386,0,0,0-1.391-.508,2.573,2.573,0,0,0-1.533,4.732.594.594,0,0,1,.318.65,4.718,4.718,0,0,0,.214,1.9,6.919,6.919,0,0,0,2.909,3.658A12.959,12.959,0,0,0,608.709,429.245Z" transform="translate(-590.786 -400.852)" fill="url(#linear-gradient)"/>
  <path id="Path_2" data-name="Path 2" d="M706.548,571.071a1.9,1.9,0,0,1-1.892,1.892,1.944,1.944,0,0,1-1.9-1.9,1.9,1.9,0,0,1,1.924-1.895A1.872,1.872,0,0,1,706.548,571.071Z" transform="translate(-690.829 -551.232)" fill="url(#linear-gradient)"/>
  <path id="Path_3" data-name="Path 3" d="M781.9,569.166a1.9,1.9,0,0,1,1.876,1.908,1.943,1.943,0,0,1-1.91,1.889,1.9,1.9,0,0,1-1.879-1.941A1.872,1.872,0,0,1,781.9,569.166Z" transform="translate(-759.83 -551.233)" fill="url(#linear-gradient)"/>
  <path id="Path_4" data-name="Path 4" d="M720.653,627.531a8.6,8.6,0,0,1-3.275-.618,3.438,3.438,0,0,1-1.132-.746.51.51,0,0,1-.054-.723.484.484,0,0,1,.719-.038,4.806,4.806,0,0,0,2.709,1.015,8.041,8.041,0,0,0,3.555-.325,3.554,3.554,0,0,0,1.159-.634c.308-.258.6-.254.8-.01s.152.524-.146.8a5.065,5.065,0,0,1-2.6,1.122A8.768,8.768,0,0,1,720.653,627.531Z" transform="translate(-702.717 -601.354)" fill="url(#linear-gradient)"/>
</svg>
