<svg id="Group_1" data-name="Group 1" xmlns="http://www.w3.org/2000/svg" width="134.519" height="158" viewBox="0 0 134.519 158">
  <path id="Path_1" data-name="Path 1" d="M385.728,240.153c-.161,5.99-.264,12.618-.538,19.239-.276,6.656-.633,13.311-1.111,19.955-.875,12.155-2.184,24.255-5.534,36.031a54.442,54.442,0,0,1-8.262,17.468,49.471,49.471,0,0,1-15.652,13.492c-6.275,3.622-12.66,7.055-18.949,10.654a113.876,113.876,0,0,0-11.345,7.361c-2.435,1.808-5.039,2.817-8.1,1.977a10.171,10.171,0,0,1-3.182-1.614,230.737,230.737,0,0,0-24.329-14.707,88.389,88.389,0,0,1-14.8-9.434,46.15,46.15,0,0,1-13.773-19.8,110.408,110.408,0,0,1-5.452-23.371c-1.233-8.7-1.9-17.453-2.36-26.226q-.428-8.195-.705-16.393c-.211-6.394-.442-12.786-.417-19.184a8.07,8.07,0,0,1,6.178-7.959,9.938,9.938,0,0,1,2.643-.2,104.983,104.983,0,0,0,22.287-2.017,70.687,70.687,0,0,0,30.581-14.616c3.5-2.868,7.461-2.946,10.971-.057A71.278,71.278,0,0,0,355.8,225.706a94.633,94.633,0,0,0,13.3,1.551c2.889.159,5.776.157,8.666.207a8.1,8.1,0,0,1,7.955,8C385.748,236.817,385.728,238.167,385.728,240.153Zm-118,7.018c.4,3.063.191,6.769.373,10.465.244,4.962.448,9.925.719,14.887.423,7.734,1.067,15.445,2.159,23.112a91.839,91.839,0,0,0,4.467,19.336,30.02,30.02,0,0,0,9.8,13.746,77.987,77.987,0,0,0,10.509,6.5c7.424,4.022,14.813,8.1,21.844,12.793a1.348,1.348,0,0,0,1.747-.065c3.422-2.232,6.885-4.4,10.425-6.445,5.808-3.353,11.781-6.41,17.562-9.816a31.851,31.851,0,0,0,14.742-18.423,96.8,96.8,0,0,0,3.194-13.368,302.787,302.787,0,0,0,3.317-36.566c.1-2.348.166-4.7.259-7.044.153-3.849.247-7.7.382-11.549.026-.743-.293-.995-1.021-1.046-2.958-.206-5.909-.475-8.852-.858a89.126,89.126,0,0,1-39.864-14.993,1.562,1.562,0,0,0-2.119-.013,87.878,87.878,0,0,1-31.66,13.614,101.117,101.117,0,0,1-14.751,2.061C267.709,243.734,267.708,243.712,267.731,247.17Z" transform="translate(-251.216 -208.63)" fill="#3375bb"/>
</svg>
