<svg id="Group_90" data-name="Group 90" xmlns="http://www.w3.org/2000/svg" width="43.83" height="43.83" viewBox="0 0 43.83 43.83">
  <path id="Path_5" data-name="Path 5" d="M218.515,243.409c1.533-2.76,3.052-5.528,4.61-8.273a3.587,3.587,0,0,0,.51-1.921c-.037-1.978,0-3.957-.022-5.935,0-.434.075-.609.565-.6,2.945.024,5.891-.005,8.836.018a7.551,7.551,0,0,1,2.106,14.8c-2.537.687-5.137.162-7.841.358l4.241-7.591c-1.965,0-3.81,0-5.655,0a.519.519,0,0,0-.516.313c-.958,1.75-1.928,3.493-2.895,5.239a.448.448,0,0,1-.245.43v0a.846.846,0,0,1-.293.515l-3.572,6.29c.23.014.331.026.433.026,4.749,0,9.5.025,14.247-.007a12.636,12.636,0,0,0,12.5-10.325c.994-5.334-.818-9.682-5.157-12.943a13.07,13.07,0,0,0-5.892-2.3,4.121,4.121,0,0,0-1.692-.059q-6.861-.011-13.722,0c-.746,0-.747,0-.747.736-.008,6.927.016,13.854-.013,20.782C218.3,243.141,218.227,243.355,218.515,243.409Z" transform="translate(-208.878 -212.309)" fill="#fff"/>
  <path id="Path_11" data-name="Path 11" d="M34.982,67.653A21.915,21.915,0,1,0,13.067,45.738,21.915,21.915,0,0,0,34.982,67.653ZM22.492,54.464c.029-6.927.005-13.854.013-20.782,0-.736,0-.736.747-.736q6.861,0,13.722,0a4.121,4.121,0,0,1,1.692.059,13.07,13.07,0,0,1,5.892,2.3c4.339,3.261,6.15,7.608,5.157,12.943a12.636,12.636,0,0,1-12.5,10.325c-4.749.031-9.5.007-14.247.007-.1,0-.2-.012-.433-.026l3.572-6.29a.846.846,0,0,0,.293-.514v0a.448.448,0,0,0,.245-.43c.966-1.745,1.937-3.489,2.895-5.239a.519.519,0,0,1,.516-.313c1.845.007,3.69,0,5.655,0L31.47,53.364c2.7-.2,5.3.33,7.841-.358a7.551,7.551,0,0,0-2.106-14.8c-2.945-.023-5.891.006-8.836-.018-.49,0-.57.171-.565.6.02,1.978-.016,3.957.022,5.935a3.586,3.586,0,0,1-.51,1.921c-1.559,2.745-3.077,5.513-4.61,8.273C22.416,54.87,22.492,54.655,22.492,54.464Z" transform="translate(-13.067 -23.823)"/>
</svg>
