<?xml version="1.0" standalone="no"?>
<!DOCTYPE svg PUBLIC "-//W3C//DTD SVG 20010904//EN"
 "http://www.w3.org/TR/2001/REC-SVG-20010904/DTD/svg10.dtd">
<svg version="1.0" xmlns="http://www.w3.org/2000/svg"
 width="481.000000pt" height="481.000000pt" viewBox="0 0 481.000000 481.000000"
 preserveAspectRatio="xMidYMid meet">
<metadata>
Created by potrace 1.14, written by Peter Selinger 2001-2017
</metadata>
<g transform="translate(0.000000,481.000000) scale(0.100000,-0.100000)"
fill="#000000" stroke="none">
<path d="M2218 4545 c-1 -1 -37 -6 -78 -9 -41 -4 -109 -14 -150 -22 -41 -9
-88 -18 -104 -20 -50 -9 -207 -60 -306 -99 -475 -188 -890 -568 -1120 -1025
-96 -190 -174 -434 -204 -635 -4 -27 -10 -61 -13 -75 -9 -46 -12 -424 -3 -477
5 -29 11 -79 15 -113 5 -54 43 -214 75 -325 66 -221 222 -507 388 -710 246
-299 604 -548 962 -668 142 -48 165 -54 320 -82 41 -7 91 -16 110 -20 55 -10
398 -13 475 -5 276 32 517 100 741 211 103 51 272 152 317 189 6 5 39 31 72
57 270 213 519 538 635 828 13 33 27 65 31 70 8 13 63 184 82 260 71 274 82
596 31 900 -51 307 -187 628 -376 889 -129 178 -326 372 -493 487 -27 19 -51
37 -53 42 -2 4 -8 7 -14 7 -5 0 -28 13 -51 29 -48 32 -257 143 -257 135 0 -2
-10 2 -22 10 -23 15 -272 101 -318 110 -14 3 -55 12 -91 20 -36 8 -89 17 -119
21 -29 4 -62 9 -74 12 -23 5 -402 13 -408 8z"/>
</g>
</svg>
